<svg xmlns="http://www.w3.org/2000/svg" viewBox="0 0 780 120" role="img" aria-labelledby="title desc">
  <title id="title">Beisser Lumber Company</title>
  <desc id="desc">Beisser Lumber Company logo in green and gold.</desc>
  <rect width="780" height="120" fill="none"/>
  <g transform="translate(8,10)">
    <path d="M0 0h58c20 0 34 13 34 31 0 12-6 20-15 25 12 5 20 14 20 28 0 20-16 34-38 34H0z" fill="#006834"/>
    <path d="M0 0v100h32c9 0 16-7 16-16s-7-16-16-16H13V47h18c8 0 14-6 14-14s-6-14-14-14H0z" fill="#000" opacity="0.95"/>
    <path d="M0 0L30 42v58H0z" fill="#9E8635" opacity="0.95"/>
  </g>
  <text x="126" y="68" font-size="62" font-weight="800" font-family="Arial, Helvetica, sans-serif" fill="#006834" letter-spacing="1">BEISSER</text>
  <text x="126" y="106" font-size="28" font-weight="700" font-family="Arial, Helvetica, sans-serif" fill="#9E8635" letter-spacing="8">LUMBER COMPANY</text>
</svg>
